<svg id="Layer_1" data-name="Layer 1" xmlns="http://www.w3.org/2000/svg" viewBox="0 0 100 100"><defs><style>.cls-1{fill:#222;}</style></defs><path class="cls-1" d="M72,100H60V83.27C45,94.8,29.57,101,18,99.86c-6.17-.62-11.11-3.32-14.3-7.79C-6.41,77.88,4.82,49.23,29.82,25.43L40,15.77V65H28V45C14.05,62.09,8.92,78.71,13.47,85.1c1.16,1.62,3,2.55,5.74,2.82,8.37.84,24.15-5.13,40.79-20.31V4.45L63.94,3c14.52-5.32,26.3-3.53,32.31,4.9,9.94,13.94-.48,41.37-24.25,64.85Zm0-87V54.9c13.6-16.78,19.06-33.6,14.48-40C84.28,11.79,79,11.16,72,13Z"/></svg>